<svg width="104" height="14" fill="none" xmlns="http://www.w3.org/2000/svg"><path d="M99.054 13.7a7.188 7.188 0 0 1-2.509-.427 4.58 4.58 0 0 1-1.922-1.37c-.498-.629-.806-1.43-.925-2.402h2.918c.095.367.267.664.516.89.261.225.575.39.943.498.368.094.76.142 1.174.142.285 0 .57-.03.854-.09a1.68 1.68 0 0 0 .712-.355c.19-.166.285-.397.285-.694 0-.225-.054-.403-.16-.534a1.07 1.07 0 0 0-.463-.338 3.519 3.519 0 0 0-.712-.249 7.51 7.51 0 0 0-.551-.124 7.513 7.513 0 0 1-.552-.125 9.13 9.13 0 0 1-.534-.16 17.86 17.86 0 0 1-1.53-.445 5.375 5.375 0 0 1-1.298-.676 2.861 2.861 0 0 1-.872-1.067c-.214-.44-.32-.985-.32-1.637 0-.629.106-1.163.32-1.602.225-.45.522-.812.89-1.085a4.19 4.19 0 0 1 1.227-.64 7.03 7.03 0 0 1 1.334-.32A9.6 9.6 0 0 1 99.125.8c.842 0 1.589.154 2.242.463a3.821 3.821 0 0 1 1.601 1.37c.415.593.664 1.328.747 2.206h-2.793a1.339 1.339 0 0 0-.374-.765 1.82 1.82 0 0 0-.747-.463 3.041 3.041 0 0 0-1.032-.16 3.39 3.39 0 0 0-.694.071 2.004 2.004 0 0 0-.57.178 1.188 1.188 0 0 0-.39.338.826.826 0 0 0-.143.499c0 .213.071.397.214.551.142.143.343.267.604.374.273.107.605.213.997.32.273.095.551.172.836.231.297.048.581.113.854.196.498.119.955.261 1.37.427.427.154.801.356 1.121.605.32.237.569.558.747.96.19.392.285.89.285 1.495 0 .736-.136 1.359-.409 1.869a3.482 3.482 0 0 1-1.121 1.227 4.865 4.865 0 0 1-1.601.694 7.608 7.608 0 0 1-1.815.214Zm-15.408-.143V.96h9.287v2.67h-6.405v2.383h5.391v2.563h-5.391v2.33h6.405v2.651h-9.287Zm-6.426.143a7.187 7.187 0 0 1-2.508-.427 4.58 4.58 0 0 1-1.922-1.37c-.498-.629-.806-1.43-.925-2.402h2.918c.095.367.267.664.516.89.261.225.575.39.943.498.368.094.76.142 1.174.142.285 0 .57-.03.854-.09a1.68 1.68 0 0 0 .712-.355c.19-.166.285-.397.285-.694 0-.225-.054-.403-.16-.534a1.07 1.07 0 0 0-.463-.338 3.513 3.513 0 0 0-.712-.249 7.513 7.513 0 0 0-.551-.124 7.522 7.522 0 0 1-.552-.125 9.108 9.108 0 0 1-.534-.16 17.85 17.85 0 0 1-1.53-.445 5.376 5.376 0 0 1-1.299-.676 2.862 2.862 0 0 1-.871-1.067c-.214-.44-.32-.985-.32-1.637 0-.629.106-1.163.32-1.602.225-.45.522-.812.89-1.085a4.19 4.19 0 0 1 1.227-.64c.45-.155.895-.261 1.334-.32.451-.06.866-.09 1.246-.09.842 0 1.59.154 2.242.463a3.822 3.822 0 0 1 1.6 1.37c.416.593.665 1.328.748 2.206H79.09a1.337 1.337 0 0 0-.374-.765 1.823 1.823 0 0 0-.747-.463 3.042 3.042 0 0 0-1.032-.16 3.36 3.36 0 0 0-.694.071 2.003 2.003 0 0 0-.57.178 1.19 1.19 0 0 0-.39.338.826.826 0 0 0-.143.499c0 .213.071.397.213.551.143.143.344.267.605.374a10 10 0 0 0 .997.32c.273.095.551.172.836.231.296.048.581.113.854.196.498.119.955.261 1.37.427.427.154.8.356 1.12.605.321.237.57.558.748.96.19.392.285.89.285 1.495 0 .736-.136 1.359-.41 1.869a3.477 3.477 0 0 1-1.12 1.227 4.86 4.86 0 0 1-1.602.694 7.6 7.6 0 0 1-1.814.214Zm-16.746-.143V.96h5.196c.593 0 1.18.06 1.761.178a4.667 4.667 0 0 1 1.62.605 3.15 3.15 0 0 1 1.156 1.264c.296.533.445 1.221.445 2.063 0 .57-.095 1.098-.285 1.584-.19.486-.474.907-.854 1.263-.368.356-.836.635-1.406.836l2.865 4.804h-3.274l-2.437-4.341h-1.904v4.341h-2.883Zm2.883-6.885h2.224c.344 0 .646-.03.907-.09.273-.07.504-.165.694-.284.19-.13.332-.296.427-.498.107-.202.166-.445.178-.73 0-.391-.095-.688-.285-.89a1.444 1.444 0 0 0-.729-.426 4.123 4.123 0 0 0-1.068-.125h-2.348v3.043ZM53.176 13.7c-1.246 0-2.272-.226-3.078-.676-.807-.451-1.406-1.115-1.797-1.993-.38-.878-.57-1.945-.57-3.203V.96h2.883v7.028c0 .51.077.997.231 1.46.154.462.421.841.8 1.138.38.285.902.427 1.566.427.677 0 1.187-.148 1.53-.445.356-.296.6-.676.73-1.138a4.87 4.87 0 0 0 .214-1.442V.96h2.882v6.868c0 1.246-.19 2.307-.57 3.185-.379.878-.966 1.548-1.76 2.01-.796.451-1.816.677-3.061.677Zm-13.048 0c-1.293 0-2.414-.267-3.363-.8a5.607 5.607 0 0 1-2.17-2.26c-.51-.973-.765-2.094-.765-3.363 0-1.305.26-2.438.782-3.399a5.663 5.663 0 0 1 2.224-2.26C37.786 1.074 38.906.8 40.2.8c1.27 0 2.373.267 3.31.8a5.574 5.574 0 0 1 2.206 2.243c.534.949.8 2.07.8 3.363 0 1.269-.26 2.396-.782 3.38a5.75 5.75 0 0 1-2.224 2.295c-.95.546-2.076.819-3.381.819Zm.053-2.723c.807 0 1.46-.183 1.958-.551a3.16 3.16 0 0 0 1.085-1.406 4.6 4.6 0 0 0 .142-3.06 3.582 3.582 0 0 0-.587-1.21 2.902 2.902 0 0 0-1.032-.89c-.427-.225-.955-.337-1.583-.337-.795 0-1.442.183-1.94.551a3.171 3.171 0 0 0-1.103 1.388 4.837 4.837 0 0 0-.338 1.797c0 .629.119 1.228.356 1.797a3.17 3.17 0 0 0 1.103 1.388c.51.356 1.157.533 1.94.533ZM27.54 13.7c-1.304 0-2.42-.261-3.345-.783a5.182 5.182 0 0 1-2.117-2.224c-.474-.961-.712-2.088-.712-3.38 0-1.317.25-2.462.748-3.435a5.413 5.413 0 0 1 2.117-2.26C25.156 1.074 26.248.8 27.505.8c.973 0 1.85.172 2.633.516a4.555 4.555 0 0 1 1.904 1.53c.498.665.8 1.507.907 2.527h-2.757c-.143-.581-.433-1.032-.872-1.352-.427-.332-1.009-.498-1.744-.498-.795 0-1.43.183-1.904.551a3.035 3.035 0 0 0-1.032 1.37 5.088 5.088 0 0 0-.302 1.744c0 .628.107 1.233.32 1.815a3.248 3.248 0 0 0 1.05 1.423c.486.368 1.127.551 1.921.551.475 0 .89-.07 1.246-.213.368-.142.67-.35.907-.623.238-.273.404-.599.498-.978h2.83c-.095.984-.41 1.814-.944 2.49a4.876 4.876 0 0 1-2.01 1.53 6.597 6.597 0 0 1-2.615.517Z" fill="#202326"/><path d="M15.636 13.7a7.188 7.188 0 0 1-2.51-.427 4.58 4.58 0 0 1-1.92-1.37c-.499-.629-.807-1.43-.926-2.402h2.918c.095.367.267.664.516.89.26.225.575.39.943.498.368.094.759.142 1.174.142.285 0 .57-.03.854-.09a1.68 1.68 0 0 0 .712-.355c.19-.166.285-.397.285-.694 0-.225-.054-.403-.16-.534a1.07 1.07 0 0 0-.463-.338 3.515 3.515 0 0 0-.712-.249 7.525 7.525 0 0 0-.551-.124 7.525 7.525 0 0 1-.552-.125 9.105 9.105 0 0 1-.534-.16 17.852 17.852 0 0 1-1.53-.445 5.375 5.375 0 0 1-1.299-.676 2.862 2.862 0 0 1-.872-1.067c-.213-.44-.32-.985-.32-1.637 0-.629.107-1.163.32-1.602.226-.45.522-.812.89-1.085.38-.285.789-.498 1.228-.64A7.03 7.03 0 0 1 14.46.89c.45-.06.866-.09 1.246-.09.842 0 1.59.154 2.241.463a3.822 3.822 0 0 1 1.602 1.37c.415.593.664 1.328.747 2.206h-2.793a1.337 1.337 0 0 0-.374-.765 1.823 1.823 0 0 0-.747-.463 3.041 3.041 0 0 0-1.032-.16 3.36 3.36 0 0 0-.694.071 2.005 2.005 0 0 0-.57.178 1.19 1.19 0 0 0-.39.338.825.825 0 0 0-.143.499c0 .213.07.397.213.551.143.143.344.267.605.374.273.107.605.213.997.32.272.095.551.172.836.231.296.048.581.113.854.196.498.119.955.261 1.37.427.427.154.8.356 1.12.605.321.237.57.558.748.96.19.392.285.89.285 1.495 0 .736-.137 1.359-.41 1.869a3.475 3.475 0 0 1-1.12 1.227 4.862 4.862 0 0 1-1.602.694 7.6 7.6 0 0 1-1.814.214Zm-11.01 0c-.64 0-1.24-.077-1.797-.232a3.902 3.902 0 0 1-1.477-.765c-.415-.355-.741-.83-.978-1.423C.136 10.675.012 9.928 0 9.038h2.882c0 .297.042.6.125.908.083.296.237.551.463.765.237.201.593.302 1.067.302.403 0 .712-.077.925-.231.214-.166.356-.38.427-.64.083-.262.125-.54.125-.837V.96h2.882v8.096c0 .76-.089 1.43-.267 2.01a3.606 3.606 0 0 1-.783 1.442c-.355.391-.8.688-1.334.89-.534.2-1.162.302-1.886.302Z" fill="#2D1AA7"/></svg>